<?xml version="1.0" encoding="iso-8859-1"?>
<!-- Generator: Adobe Illustrator 19.0.0, SVG Export Plug-In . SVG Version: 6.00 Build 0)  -->
<svg version="1.1" id="Layer_1" xmlns="http://www.w3.org/2000/svg" xmlns:xlink="http://www.w3.org/1999/xlink" x="0px" y="0px"
	 viewBox="0 0 512 512" style="enable-background:new 0 0 512 512;" xml:space="preserve">
<circle style="fill:#9AD14B;" cx="255.998" cy="255.998" r="245.419"/>
<path style="fill:#90BC42;" d="M122.901,82.46c42.77-42.776,97.406-66.443,153.315-71.037c-69.364-5.7-140.688,17.967-193.75,71.037
	c-95.846,95.846-95.846,251.23,0,347.076c53.061,53.07,124.385,76.737,193.751,71.037c-55.909-4.594-110.545-28.261-153.315-71.037
	C27.055,333.69,27.055,178.306,122.901,82.46z"/>
<path d="M255.999,512c-68.38,0-132.668-26.629-181.018-74.981C26.628,388.666,0,324.379,0,255.999S26.628,123.333,74.981,74.981
	C123.333,26.628,187.619,0,255.999,0c68.381,0,132.668,26.628,181.02,74.981C485.371,123.333,512,187.619,512,255.999
	s-26.628,132.666-74.981,181.018C388.667,485.371,324.381,512,255.999,512z M255.999,21.158
	c-62.728,0-121.702,24.428-166.058,68.783c-91.565,91.565-91.565,240.551,0,332.116c44.356,44.356,103.33,68.785,166.058,68.785
	c62.729,0,121.702-24.428,166.059-68.785c91.565-91.565,91.565-240.551,0-332.116C377.702,45.586,318.729,21.158,255.999,21.158z"/>
<path d="M206.667,403.193c-2.707,0-5.415-1.033-7.48-3.099c-4.131-4.131-4.131-10.83,0-14.96l129.134-129.134L199.187,126.865
	c-4.131-4.131-4.131-10.83,0-14.96c4.131-4.131,10.83-4.131,14.96,0l136.614,136.614c4.131,4.131,4.131,10.83,0,14.96
	L214.147,400.094C212.081,402.16,209.374,403.193,206.667,403.193z"/>
<path d="M247.573,444.098c-2.707,0-5.415-1.033-7.48-3.099c-4.131-4.131-4.131-10.83,0-14.96l136.615-136.615
	c4.131-4.131,10.83-4.131,14.96,0c4.131,4.131,4.131,10.83,0,14.96L255.053,440.999C252.986,443.066,250.28,444.098,247.573,444.098
	z"/>
<g>
</g>
<g>
</g>
<g>
</g>
<g>
</g>
<g>
</g>
<g>
</g>
<g>
</g>
<g>
</g>
<g>
</g>
<g>
</g>
<g>
</g>
<g>
</g>
<g>
</g>
<g>
</g>
<g>
</g>
</svg>
